<svg width="150" height="24" viewBox="0 0 150 24" fill="none" xmlns="http://www.w3.org/2000/svg">
<path d="M1.1875 5.375H4.25838L6.28544 3.34794C6.50809 3.12528 6.80972 3 7.125 3H11.875C12.1903 3 12.4919 3.12528 12.7146 3.34794L14.7416 5.375H17.8125C18.4689 5.375 19 5.90611 19 6.5625V19.625C19 20.2814 18.4689 20.8125 17.8125 20.8125H1.1875C0.531109 20.8125 0 20.2814 0 19.625V6.5625C0 5.90611 0.531109 5.375 1.1875 5.375ZM9.5 17.25C12.1232 17.25 14.25 15.1232 14.25 12.5C14.25 9.87681 12.1232 7.75 9.5 7.75C6.87681 7.75 4.75 9.87681 4.75 12.5C4.75 15.1232 6.87681 17.25 9.5 17.25Z" fill="#101010"/>
<path d="M9.375 14.75C8.06332 14.75 7 13.6867 7 12.375C7 11.0633 8.06332 10 9.375 10C10.6867 10 11.75 11.0633 11.75 12.375C11.75 13.6867 10.6867 14.75 9.375 14.75Z" fill="#101010"/>
<path d="M33.92 20C33.8667 20 33.82 19.98 33.78 19.94L32.46 18.62C32.42 18.58 32.4 18.5333 32.4 18.48V15.66C32.4 15.5933 32.4333 15.56 32.5 15.56H34.12C34.1867 15.56 34.22 15.5933 34.22 15.66V17.72L34.68 18.18H41.32L41.78 17.72V14.02L41.32 13.56H33.92C33.8667 13.56 33.82 13.54 33.78 13.5L32.46 12.18C32.42 12.14 32.4 12.0933 32.4 12.04V7.52C32.4 7.46667 32.42 7.42 32.46 7.38L33.78 6.06C33.82 6.02 33.8667 6 33.92 6H42.06C42.1133 6 42.16 6.02 42.2 6.06L43.54 7.38C43.58 7.42 43.6 7.46667 43.6 7.52V9.82C43.6 9.88667 43.5667 9.92 43.5 9.92H41.88C41.8133 9.92 41.78 9.88667 41.78 9.82V8.26L41.32 7.8H34.68L34.22 8.26V11.28L34.68 11.74H42.06C42.1133 11.74 42.16 11.76 42.2 11.8L43.54 13.12C43.58 13.16 43.6 13.2067 43.6 13.26V18.48C43.6 18.5333 43.58 18.58 43.54 18.62L42.22 19.94C42.18 19.98 42.1333 20 42.08 20H33.92ZM50.1239 20C50.0706 20 50.0239 19.98 49.9839 19.94L48.6639 18.62C48.6239 18.58 48.6039 18.5333 48.6039 18.48V6.1C48.6039 6.03333 48.6372 6 48.7039 6H50.3239C50.3906 6 50.4239 6.03333 50.4239 6.1V17.72L50.8839 18.18H57.7239L58.1839 17.72V6.1C58.1839 6.03333 58.2172 6 58.2839 6H59.9039C59.9706 6 60.0039 6.03333 60.0039 6.1V18.48C60.0039 18.5333 59.9839 18.58 59.9439 18.62L58.6239 19.94C58.5839 19.98 58.5372 20 58.4839 20H50.1239ZM65.1031 20C65.0365 20 65.0031 19.9667 65.0031 19.9V6.1C65.0031 6.03333 65.0365 6 65.1031 6H66.8231C66.8898 6 66.9298 6.02 66.9431 6.06L74.4831 16.84H74.6831V6.1C74.6831 6.03333 74.7165 6 74.7831 6H76.3831C76.4498 6 76.4831 6.03333 76.4831 6.1V19.9C76.4831 19.9667 76.4498 20 76.3831 20H74.6631C74.5965 20 74.5565 19.98 74.5431 19.94L67.0231 9.24H66.8231V19.9C66.8231 19.9667 66.7898 20 66.7231 20H65.1031ZM83.0005 20C82.9471 20 82.9005 19.98 82.8605 19.94L81.5405 18.62C81.5005 18.58 81.4805 18.5333 81.4805 18.48V15.66C81.4805 15.5933 81.5138 15.56 81.5805 15.56H83.2005C83.2671 15.56 83.3005 15.5933 83.3005 15.66V17.72L83.7605 18.18H90.4005L90.8605 17.72V14.02L90.4005 13.56H83.0005C82.9471 13.56 82.9005 13.54 82.8605 13.5L81.5405 12.18C81.5005 12.14 81.4805 12.0933 81.4805 12.04V7.52C81.4805 7.46667 81.5005 7.42 81.5405 7.38L82.8605 6.06C82.9005 6.02 82.9471 6 83.0005 6H91.1405C91.1938 6 91.2405 6.02 91.2805 6.06L92.6205 7.38C92.6605 7.42 92.6805 7.46667 92.6805 7.52V9.82C92.6805 9.88667 92.6471 9.92 92.5805 9.92H90.9605C90.8938 9.92 90.8605 9.88667 90.8605 9.82V8.26L90.4005 7.8H83.7605L83.3005 8.26V11.28L83.7605 11.74H91.1405C91.1938 11.74 91.2405 11.76 91.2805 11.8L92.6205 13.12C92.6605 13.16 92.6805 13.2067 92.6805 13.26V18.48C92.6805 18.5333 92.6605 18.58 92.6205 18.62L91.3005 19.94C91.2605 19.98 91.2138 20 91.1605 20H83.0005ZM97.7844 20C97.7177 20 97.6844 19.9667 97.6844 19.9V6.1C97.6844 6.03333 97.7177 6 97.7844 6H99.4044C99.471 6 99.5044 6.03333 99.5044 6.1V12.1H107.144V6.1C107.144 6.03333 107.178 6 107.244 6H108.864C108.931 6 108.964 6.03333 108.964 6.1V19.9C108.964 19.9667 108.931 20 108.864 20H107.244C107.178 20 107.144 19.9667 107.144 19.9V13.9H99.5044V19.9C99.5044 19.9667 99.471 20 99.4044 20H97.7844ZM114.226 20C114.16 20 114.126 19.9667 114.126 19.9V6.1C114.126 6.03333 114.16 6 114.226 6H115.826C115.893 6 115.926 6.03333 115.926 6.1V19.9C115.926 19.9667 115.893 20 115.826 20H114.226ZM121.188 20C121.122 20 121.088 19.9667 121.088 19.9V6.1C121.088 6.03333 121.122 6 121.188 6H122.908C122.975 6 123.015 6.02 123.028 6.06L130.568 16.84H130.768V6.1C130.768 6.03333 130.802 6 130.868 6H132.468C132.535 6 132.568 6.03333 132.568 6.1V19.9C132.568 19.9667 132.535 20 132.468 20H130.748C130.682 20 130.642 19.98 130.628 19.94L123.108 9.24H122.908V19.9C122.908 19.9667 122.875 20 122.808 20H121.188ZM137.666 20C137.599 20 137.566 19.9667 137.566 19.9V6.1C137.566 6.03333 137.599 6 137.666 6H147.806C147.872 6 147.906 6.03333 147.906 6.1V7.7C147.906 7.76667 147.872 7.8 147.806 7.8H139.386V12.1H146.186C146.252 12.1 146.286 12.1333 146.286 12.2V13.8C146.286 13.8667 146.252 13.9 146.186 13.9H139.386V18.18H148.086C148.139 18.18 148.166 18.2133 148.166 18.28L147.906 19.9C147.906 19.9667 147.866 20 147.786 20H137.666Z" fill="#101010"/>
</svg>
